mtllib model.mtl
o object_0
g object_0
usemtl object_0
v 0.7871999740600586 99.99960327148438 157.16354370117188 
v 0.7871999740600586 99.99960327148438 -157.16400146484375 
v 19.684799194335938 98.42479705810547 157.16354370117188 
v 19.684799194335938 98.42479705810547 -157.16400146484375 
v 38.582401275634766 92.12560272216797 157.16354370117188 
v 38.582401275634766 92.12560272216797 -157.16400146484375 
v 55.90520095825195 82.67680358886719 157.16354370117188 
v 55.90520095825195 82.67680358886719 -157.16400146484375 
v 70.07839965820312 70.07839965820312 157.16354370117188 
v 70.07839965820312 70.07839965820312 -157.16400146484375 
v 82.67680358886719 55.90520095825195 157.16354370117188 
v 82.67680358886719 55.90520095825195 -157.16400146484375 
v 92.12560272216797 38.582401275634766 157.16354370117188 
v 92.12560272216797 38.582401275634766 -157.16400146484375 
v 98.42479705810547 19.684799194335938 157.16354370117188 
v 98.42479705810547 19.684799194335938 -157.16400146484375 
v 99.99960327148438 0.7871999740600586 157.16354370117188 
v 99.99960327148438 0.7871999740600586 -157.16400146484375 
v 98.42479705810547 -19.685199737548828 157.16354370117188 
v 98.42479705810547 -19.685199737548828 -157.16400146484375 
v 92.12560272216797 -38.582801818847656 157.16354370117188 
v 92.12560272216797 -38.582801818847656 -157.16400146484375 
v 82.67680358886719 -55.905601501464844 157.16354370117188 
v 82.67680358886719 -55.905601501464844 -157.16400146484375 
v 70.07839965820312 -70.07879638671875 157.16354370117188 
v 70.07839965820312 -70.07879638671875 -157.16400146484375 
v 55.90520095825195 -82.67720031738281 157.16354370117188 
v 55.90520095825195 -82.67720031738281 -157.16400146484375 
v 38.582401275634766 -92.1259994506836 157.16354370117188 
v 38.582401275634766 -92.1259994506836 -157.16400146484375 
v 19.684799194335938 -98.42520141601562 157.16354370117188 
v 19.684799194335938 -98.42520141601562 -157.16400146484375 
v 0.7871999740600586 -100 157.16354370117188 
v 0.7871999740600586 -100 -157.16400146484375 
v -19.685199737548828 -98.42520141601562 157.16354370117188 
v -19.685199737548828 -98.42520141601562 -157.16400146484375 
v -38.582801818847656 -92.1259994506836 157.16354370117188 
v -38.582801818847656 -92.1259994506836 -157.16400146484375 
v -55.905601501464844 -82.67720031738281 157.16354370117188 
v -55.905601501464844 -82.67720031738281 -157.16400146484375 
v -70.07879638671875 -70.07879638671875 157.16354370117188 
v -70.07879638671875 -70.07879638671875 -157.16400146484375 
v -82.67720031738281 -55.905601501464844 157.16354370117188 
v -82.67720031738281 -55.905601501464844 -157.16400146484375 
v -92.1259994506836 -38.582801818847656 157.16354370117188 
v -92.1259994506836 -38.582801818847656 -157.16400146484375 
v -98.42520141601562 -19.685199737548828 157.16354370117188 
v -98.42520141601562 -19.685199737548828 -157.16400146484375 
v -100 0.7871999740600586 157.16354370117188 
v -100 0.7871999740600586 -157.16400146484375 
v -98.42520141601562 19.684799194335938 157.16354370117188 
v -98.42520141601562 19.684799194335938 -157.16400146484375 
v -92.1259994506836 38.582401275634766 157.16354370117188 
v -92.1259994506836 38.582401275634766 -157.16400146484375 
v -82.67720031738281 55.90520095825195 157.16354370117188 
v -82.67720031738281 55.90520095825195 -157.16400146484375 
v -70.07879638671875 70.07839965820312 157.16354370117188 
v -70.07879638671875 70.07839965820312 -157.16400146484375 
v -55.905601501464844 82.67680358886719 157.16354370117188 
v -55.905601501464844 82.67680358886719 -157.16400146484375 
v -38.582801818847656 92.12560272216797 157.16354370117188 
v -38.582801818847656 92.12560272216797 -157.16400146484375 
v -19.685199737548828 98.42479705810547 157.16354370117188 
v -19.685199737548828 98.42479705810547 -157.16400146484375 
v 0.7871999740600586 99.99960327148438 157.16354370117188 
v 0.7871999740600586 99.99960327148438 -157.16400146484375 
v -100 0.7871999740600586 157.16354370117188 
v -98.42520141601562 19.684799194335938 157.16354370117188 
v -98.42520141601562 -19.685199737548828 157.16354370117188 
v -92.1259994506836 38.582401275634766 157.16354370117188 
v -92.1259994506836 -38.582801818847656 157.16354370117188 
v -82.67720031738281 55.90520095825195 157.16354370117188 
v -82.67720031738281 -55.905601501464844 157.16354370117188 
v -70.07879638671875 70.07839965820312 157.16354370117188 
v -70.07879638671875 -70.07879638671875 157.16354370117188 
v -55.905601501464844 82.67680358886719 157.16354370117188 
v -55.905601501464844 -82.67720031738281 157.16354370117188 
v -38.582801818847656 92.12560272216797 157.16354370117188 
v -38.582801818847656 -92.1259994506836 157.16354370117188 
v -19.685199737548828 98.42479705810547 157.16354370117188 
v -19.685199737548828 -98.42520141601562 157.16354370117188 
v 0.7871999740600586 99.99960327148438 157.16354370117188 
v 0.7871999740600586 -100 157.16354370117188 
v 19.684799194335938 98.42479705810547 157.16354370117188 
v 19.684799194335938 -98.42520141601562 157.16354370117188 
v 38.582401275634766 92.12560272216797 157.16354370117188 
v 38.582401275634766 -92.1259994506836 157.16354370117188 
v 55.90520095825195 82.67680358886719 157.16354370117188 
v 55.90520095825195 -82.67720031738281 157.16354370117188 
v 70.07839965820312 70.07839965820312 157.16354370117188 
v 70.07839965820312 -70.07879638671875 157.16354370117188 
v 82.67680358886719 55.90520095825195 157.16354370117188 
v 82.67680358886719 -55.905601501464844 157.16354370117188 
v 92.12560272216797 38.582401275634766 157.16354370117188 
v 92.12560272216797 -38.582801818847656 157.16354370117188 
v 98.42479705810547 19.684799194335938 157.16354370117188 
v 98.42479705810547 -19.685199737548828 157.16354370117188 
v 99.99960327148438 0.7871999740600586 157.16354370117188 
v -100 0.7871999740600586 -157.16400146484375 
v -98.42520141601562 -19.685199737548828 -157.16400146484375 
v -98.42520141601562 19.684799194335938 -157.16400146484375 
v -92.1259994506836 -38.582801818847656 -157.16400146484375 
v -92.1259994506836 38.582401275634766 -157.16400146484375 
v -82.67720031738281 -55.905601501464844 -157.16400146484375 
v -82.67720031738281 55.90520095825195 -157.16400146484375 
v -70.07879638671875 -70.07879638671875 -157.16400146484375 
v -70.07879638671875 70.07839965820312 -157.16400146484375 
v -55.905601501464844 -82.67720031738281 -157.16400146484375 
v -55.905601501464844 82.67680358886719 -157.16400146484375 
v -38.582801818847656 -92.1259994506836 -157.16400146484375 
v -38.582801818847656 92.12560272216797 -157.16400146484375 
v -19.685199737548828 -98.42520141601562 -157.16400146484375 
v -19.685199737548828 98.42479705810547 -157.16400146484375 
v 0.7871999740600586 -100 -157.16400146484375 
v 0.7871999740600586 99.99960327148438 -157.16400146484375 
v 19.684799194335938 -98.42520141601562 -157.16400146484375 
v 19.684799194335938 98.42479705810547 -157.16400146484375 
v 38.582401275634766 -92.1259994506836 -157.16400146484375 
v 38.582401275634766 92.12560272216797 -157.16400146484375 
v 55.90520095825195 -82.67720031738281 -157.16400146484375 
v 55.90520095825195 82.67680358886719 -157.16400146484375 
v 70.07839965820312 -70.07879638671875 -157.16400146484375 
v 70.07839965820312 70.07839965820312 -157.16400146484375 
v 82.67680358886719 -55.905601501464844 -157.16400146484375 
v 82.67680358886719 55.90520095825195 -157.16400146484375 
v 92.12560272216797 -38.582801818847656 -157.16400146484375 
v 92.12560272216797 38.582401275634766 -157.16400146484375 
v 98.42479705810547 -19.685199737548828 -157.16400146484375 
v 98.42479705810547 19.684799194335938 -157.16400146484375 
v 99.99960327148438 0.7871999740600586 -157.16400146484375 
vn 0.001889 -0.934178 -0.356804
vn -0.381347 -0.655486 0.651854
vn 0.242943 -0.718377 -0.651854
vn -0.183637 -0.915952 0.356804
vn 0.103505 -0.751248 -0.651854
vn -0.356624 -0.863430 0.356804
vn -0.047165 -0.756877 -0.651854
vn -0.516255 -0.778571 0.356804
vn -0.195970 -0.732586 -0.651854
vn -0.661897 -0.659230 0.356804
vn -0.337029 -0.679337 -0.651854
vn -0.776480 -0.519394 0.356804
vn -0.458775 -0.603831 -0.651854
vn -0.861983 -0.360107 0.356804
vn -0.569167 -0.501134 -0.651854
vn -0.916686 -0.179936 0.356804
vn -0.657060 -0.378627 -0.651854
vn -0.934179 0.000000 0.356804
vn -0.716543 -0.248301 -0.651854
vn -0.916686 0.179936 0.356804
vn -0.751503 -0.101635 -0.651854
vn -0.861983 0.360107 0.356804
vn -0.756757 0.049049 -0.651854
vn -0.776480 0.519394 0.356804
vn -0.732096 0.197793 -0.651854
vn -0.661897 0.659230 0.356804
vn -0.681835 0.331946 -0.651854
vn -0.516255 0.778571 0.356804
vn -0.602687 0.460277 -0.651854
vn -0.356624 0.863430 0.356804
vn -0.499716 0.570413 -0.651854
vn -0.183637 0.915952 0.356804
vn -0.383524 0.654214 -0.651854
vn 0.003772 0.934172 0.356804
vn -0.246516 0.717159 -0.651854
vn 0.183637 0.915952 0.356804
vn -0.099764 0.751754 -0.651854
vn 0.356624 0.863430 0.356804
vn 0.050932 0.756633 -0.651854
vn 0.516255 0.778571 0.356804
vn 0.192320 0.733553 -0.651854
vn 0.661897 0.659230 0.356804
vn 0.333643 0.681006 -0.651854
vn 0.776480 0.519394 0.356804
vn 0.461776 0.601540 -0.651854
vn 0.861983 0.360107 0.356804
vn 0.566665 0.503962 -0.651854
vn 0.916686 0.179936 0.356804
vn 0.655167 0.381894 -0.651854
vn 0.934179 0.000000 0.356804
vn 0.717770 0.244730 -0.651854
vn 0.916686 -0.179936 0.356804
vn 0.752000 0.097892 -0.651854
vn 0.861983 -0.360107 0.356804
vn 0.756992 -0.045280 -0.651854
vn 0.776480 -0.519394 0.356804
vn 0.733072 -0.194146 -0.651854
vn 0.661897 -0.659230 0.356804
vn 0.680174 -0.335337 -0.651854
vn 0.516255 -0.778571 0.356804
vn 0.604971 -0.457271 -0.651854
vn 0.356624 -0.863430 0.356804
vn -0.246516 -0.717159 -0.651854
vn 0.183637 -0.915952 0.356804
vn 0.001889 -0.934178 -0.356804
vn -0.381347 -0.655486 0.651854
vn 0.655167 0.381894 -0.651854
vn 0.717770 0.244730 -0.651854
vn 0.566665 0.503962 -0.651854
vn 0.752000 0.097892 -0.651854
vn 0.461776 0.601540 -0.651854
vn 0.756992 -0.045280 -0.651854
vn 0.333643 0.681006 -0.651854
vn 0.733072 -0.194146 -0.651854
vn 0.192320 0.733553 -0.651854
vn 0.680174 -0.335337 -0.651854
vn 0.050932 0.756633 -0.651854
vn 0.604971 -0.457271 -0.651854
vn -0.099764 0.751754 -0.651854
vn -0.246516 -0.717159 -0.651854
vn -0.246516 0.717159 -0.651854
vn 0.001889 -0.934178 -0.356804
vn -0.383524 0.654214 -0.651854
vn 0.242943 -0.718377 -0.651854
vn -0.499716 0.570413 -0.651854
vn 0.103505 -0.751248 -0.651854
vn -0.602687 0.460277 -0.651854
vn -0.047165 -0.756877 -0.651854
vn -0.681835 0.331946 -0.651854
vn -0.195970 -0.732586 -0.651854
vn -0.732096 0.197793 -0.651854
vn -0.337029 -0.679337 -0.651854
vn -0.756757 0.049049 -0.651854
vn -0.458775 -0.603831 -0.651854
vn -0.751503 -0.101635 -0.651854
vn -0.569167 -0.501134 -0.651854
vn -0.716543 -0.248301 -0.651854
vn -0.657060 -0.378627 -0.651854
vn 0.934179 0.000000 0.356804
vn 0.916686 0.179936 0.356804
vn 0.916686 -0.179936 0.356804
vn 0.861983 0.360107 0.356804
vn 0.861983 -0.360107 0.356804
vn 0.776480 0.519394 0.356804
vn 0.776480 -0.519394 0.356804
vn 0.661897 0.659230 0.356804
vn 0.661897 -0.659230 0.356804
vn 0.516255 0.778571 0.356804
vn 0.516255 -0.778571 0.356804
vn 0.356624 0.863430 0.356804
vn 0.356624 -0.863430 0.356804
vn 0.183637 0.915952 0.356804
vn 0.183637 -0.915952 0.356804
vn 0.003772 0.934172 0.356804
vn -0.381347 -0.655486 0.651854
vn -0.183637 0.915952 0.356804
vn -0.183637 -0.915952 0.356804
vn -0.356624 0.863430 0.356804
vn -0.356624 -0.863430 0.356804
vn -0.516255 0.778571 0.356804
vn -0.516255 -0.778571 0.356804
vn -0.661897 0.659230 0.356804
vn -0.661897 -0.659230 0.356804
vn -0.776480 0.519394 0.356804
vn -0.776480 -0.519394 0.356804
vn -0.861983 0.360107 0.356804
vn -0.861983 -0.360107 0.356804
vn -0.916686 0.179936 0.356804
vn -0.916686 -0.179936 0.356804
vn -0.934179 0.000000 0.356804
vt 0.999998 1.000003
vt 0.999998 0.000430
vt 0.968745 1.000003
vt 0.968745 0.000430
vt 0.937491 1.000003
vt 0.937491 0.000430
vt 0.906237 1.000003
vt 0.906237 0.000430
vt 0.874983 1.000003
vt 0.874983 0.000430
vt 0.843729 1.000003
vt 0.843729 0.000430
vt 0.812476 1.000003
vt 0.812476 0.000430
vt 0.781222 1.000003
vt 0.781222 0.000430
vt 0.749968 1.000003
vt 0.749968 0.000430
vt 0.718714 1.000003
vt 0.718714 0.000430
vt 0.687461 1.000003
vt 0.687461 0.000430
vt 0.656207 1.000003
vt 0.656207 0.000430
vt 0.624953 1.000003
vt 0.624953 0.000430
vt 0.593699 1.000003
vt 0.593699 0.000430
vt 0.562446 1.000003
vt 0.562446 0.000430
vt 0.531192 1.000003
vt 0.531192 0.000430
vt 0.500060 1.000003
vt 0.500060 0.000430
vt 0.468806 1.000003
vt 0.468806 0.000430
vt 0.437553 1.000003
vt 0.437553 0.000430
vt 0.406299 1.000003
vt 0.406299 0.000430
vt 0.375045 1.000003
vt 0.375045 0.000430
vt 0.343791 1.000003
vt 0.343791 0.000430
vt 0.312538 1.000003
vt 0.312538 0.000430
vt 0.281284 1.000003
vt 0.281284 0.000430
vt 0.250030 1.000003
vt 0.250030 0.000430
vt 0.218776 1.000003
vt 0.218776 0.000430
vt 0.187523 1.000003
vt 0.187523 0.000430
vt 0.156269 1.000003
vt 0.156269 0.000430
vt 0.125015 1.000003
vt 0.125015 0.000430
vt 0.093761 1.000003
vt 0.093761 0.000430
vt 0.062508 1.000003
vt 0.062508 0.000430
vt 0.031254 1.000003
vt 0.031254 0.000430
vt 0.000000 1.000003
vt 0.000000 0.000430
vt 0.002686 0.993901
vt 0.002808 0.994389
vt 0.002808 0.993413
vt 0.002930 0.994877
vt 0.002930 0.993047
vt 0.003174 0.995243
vt 0.003174 0.992559
vt 0.003418 0.995609
vt 0.003418 0.992192
vt 0.003785 0.995853
vt 0.003785 0.991948
vt 0.004151 0.996097
vt 0.004151 0.991704
vt 0.004639 0.996220
vt 0.004639 0.991582
vt 0.005128 0.996342
vt 0.005128 0.991460
vt 0.005616 0.996220
vt 0.005616 0.991582
vt 0.005982 0.996097
vt 0.005982 0.991704
vt 0.006471 0.995853
vt 0.006471 0.991948
vt 0.006837 0.995609
vt 0.006837 0.992192
vt 0.007081 0.995243
vt 0.007081 0.992559
vt 0.007325 0.994877
vt 0.007325 0.993047
vt 0.007447 0.994389
vt 0.007447 0.993413
vt 0.007569 0.993901
vt 0.001953 0.004457
vt 0.002075 0.003969
vt 0.002075 0.004945
vt 0.002198 0.003603
vt 0.002198 0.005434
vt 0.002442 0.003115
vt 0.002442 0.005800
vt 0.002686 0.002749
vt 0.002686 0.006166
vt 0.003052 0.002505
vt 0.003052 0.006532
vt 0.003418 0.002261
vt 0.003418 0.006654
vt 0.003907 0.002139
vt 0.003907 0.006776
vt 0.004395 0.002139
vt 0.004395 0.006898
vt 0.004883 0.002139
vt 0.004883 0.006776
vt 0.005250 0.002261
vt 0.005250 0.006654
vt 0.005738 0.002505
vt 0.005738 0.006532
vt 0.006104 0.002749
vt 0.006104 0.006166
vt 0.006348 0.003115
vt 0.006348 0.005800
vt 0.006593 0.003603
vt 0.006593 0.005434
vt 0.006715 0.003969
vt 0.006715 0.004945
vt 0.006837 0.004457
f 1/1/1 2/2/2 3/3/3
f 2/2/2 4/4/4 3/3/3
f 3/3/3 4/4/4 5/5/5
f 4/4/4 6/6/6 5/5/5
f 5/5/5 6/6/6 7/7/7
f 6/6/6 8/8/8 7/7/7
f 7/7/7 8/8/8 9/9/9
f 8/8/8 10/10/10 9/9/9
f 9/9/9 10/10/10 11/11/11
f 10/10/10 12/12/12 11/11/11
f 11/11/11 12/12/12 13/13/13
f 12/12/12 14/14/14 13/13/13
f 13/13/13 14/14/14 15/15/15
f 14/14/14 16/16/16 15/15/15
f 15/15/15 16/16/16 17/17/17
f 16/16/16 18/18/18 17/17/17
f 17/17/17 18/18/18 19/19/19
f 18/18/18 20/20/20 19/19/19
f 19/19/19 20/20/20 21/21/21
f 20/20/20 22/22/22 21/21/21
f 21/21/21 22/22/22 23/23/23
f 22/22/22 24/24/24 23/23/23
f 23/23/23 24/24/24 25/25/25
f 24/24/24 26/26/26 25/25/25
f 25/25/25 26/26/26 27/27/27
f 26/26/26 28/28/28 27/27/27
f 27/27/27 28/28/28 29/29/29
f 28/28/28 30/30/30 29/29/29
f 29/29/29 30/30/30 31/31/31
f 30/30/30 32/32/32 31/31/31
f 31/31/31 32/32/32 33/33/33
f 32/32/32 34/34/34 33/33/33
f 33/33/33 34/34/34 35/35/35
f 34/34/34 36/36/36 35/35/35
f 35/35/35 36/36/36 37/37/37
f 36/36/36 38/38/38 37/37/37
f 37/37/37 38/38/38 39/39/39
f 38/38/38 40/40/40 39/39/39
f 39/39/39 40/40/40 41/41/41
f 40/40/40 42/42/42 41/41/41
f 41/41/41 42/42/42 43/43/43
f 42/42/42 44/44/44 43/43/43
f 43/43/43 44/44/44 45/45/45
f 44/44/44 46/46/46 45/45/45
f 45/45/45 46/46/46 47/47/47
f 46/46/46 48/48/48 47/47/47
f 47/47/47 48/48/48 49/49/49
f 48/48/48 50/50/50 49/49/49
f 49/49/49 50/50/50 51/51/51
f 50/50/50 52/52/52 51/51/51
f 51/51/51 52/52/52 53/53/53
f 52/52/52 54/54/54 53/53/53
f 53/53/53 54/54/54 55/55/55
f 54/54/54 56/56/56 55/55/55
f 55/55/55 56/56/56 57/57/57
f 56/56/56 58/58/58 57/57/57
f 57/57/57 58/58/58 59/59/59
f 58/58/58 60/60/60 59/59/59
f 59/59/59 60/60/60 61/61/61
f 60/60/60 62/62/62 61/61/61
f 61/61/61 62/62/62 63/63/63
f 62/62/62 64/64/64 63/63/63
f 63/63/63 64/64/64 65/65/65
f 64/64/64 66/66/66 65/65/65
f 67/67/67 68/68/68 69/69/69
f 68/68/68 70/70/70 69/69/69
f 69/69/69 70/70/70 71/71/71
f 70/70/70 72/72/72 71/71/71
f 71/71/71 72/72/72 73/73/73
f 72/72/72 74/74/74 73/73/73
f 73/73/73 74/74/74 75/75/75
f 74/74/74 76/76/76 75/75/75
f 75/75/75 76/76/76 77/77/77
f 76/76/76 78/78/78 77/77/77
f 77/77/77 78/78/78 79/79/79
f 78/78/78 80/80/80 79/79/79
f 79/79/79 80/80/80 81/81/81
f 80/80/80 82/82/82 81/81/81
f 81/81/81 82/82/82 83/83/83
f 82/82/82 84/84/84 83/83/83
f 83/83/83 84/84/84 85/85/85
f 84/84/84 86/86/86 85/85/85
f 85/85/85 86/86/86 87/87/87
f 86/86/86 88/88/88 87/87/87
f 87/87/87 88/88/88 89/89/89
f 88/88/88 90/90/90 89/89/89
f 89/89/89 90/90/90 91/91/91
f 90/90/90 92/92/92 91/91/91
f 91/91/91 92/92/92 93/93/93
f 92/92/92 94/94/94 93/93/93
f 93/93/93 94/94/94 95/95/95
f 94/94/94 96/96/96 95/95/95
f 95/95/95 96/96/96 97/97/97
f 96/96/96 98/98/98 97/97/97
f 99/99/99 100/100/100 101/101/101
f 100/100/100 102/102/102 101/101/101
f 101/101/101 102/102/102 103/103/103
f 102/102/102 104/104/104 103/103/103
f 103/103/103 104/104/104 105/105/105
f 104/104/104 106/106/106 105/105/105
f 105/105/105 106/106/106 107/107/107
f 106/106/106 108/108/108 107/107/107
f 107/107/107 108/108/108 109/109/109
f 108/108/108 110/110/110 109/109/109
f 109/109/109 110/110/110 111/111/111
f 110/110/110 112/112/112 111/111/111
f 111/111/111 112/112/112 113/113/113
f 112/112/112 114/114/114 113/113/113
f 113/113/113 114/114/114 115/115/115
f 114/114/114 116/116/116 115/115/115
f 115/115/115 116/116/116 117/117/117
f 116/116/116 118/118/118 117/117/117
f 117/117/117 118/118/118 119/119/119
f 118/118/118 120/120/120 119/119/119
f 119/119/119 120/120/120 121/121/121
f 120/120/120 122/122/122 121/121/121
f 121/121/121 122/122/122 123/123/123
f 122/122/122 124/124/124 123/123/123
f 123/123/123 124/124/124 125/125/125
f 124/124/124 126/126/126 125/125/125
f 125/125/125 126/126/126 127/127/127
f 126/126/126 128/128/128 127/127/127
f 127/127/127 128/128/128 129/129/129
f 128/128/128 130/130/130 129/129/129
